<svg width="240" height="65" viewBox="0 0 240 65" fill="none" xmlns="http://www.w3.org/2000/svg">
<path d="M0 20.5C0 13.8726 5.37258 8.5 12 8.5H36C42.6274 8.5 48 13.8726 48 20.5V44.5C48 51.1274 42.6274 56.5 36 56.5H12C5.37258 56.5 0 51.1274 0 44.5V20.5Z" fill="#FFB800"/>
<path d="M33 20.5C33 15.5294 37.0294 11.5 42 11.5V11.5C46.9706 11.5 51 15.5294 51 20.5V20.5C51 25.4706 46.9706 29.5 42 29.5V29.5C37.0294 29.5 33 25.4706 33 20.5V20.5Z" fill="white"/>
<path d="M38.968 22.356C39.24 22.14 39.364 22.04 39.34 22.056C40.124 21.408 40.74 20.876 41.188 20.46C41.644 20.044 42.028 19.608 42.34 19.152C42.652 18.696 42.808 18.252 42.808 17.82C42.808 17.492 42.732 17.236 42.58 17.052C42.428 16.868 42.2 16.776 41.896 16.776C41.592 16.776 41.352 16.892 41.176 17.124C41.008 17.348 40.924 17.668 40.924 18.084H38.944C38.96 17.404 39.104 16.836 39.376 16.38C39.656 15.924 40.02 15.588 40.468 15.372C40.924 15.156 41.428 15.048 41.98 15.048C42.932 15.048 43.648 15.292 44.128 15.78C44.616 16.268 44.86 16.904 44.86 17.688C44.86 18.544 44.568 19.34 43.984 20.076C43.4 20.804 42.656 21.516 41.752 22.212H44.992V23.88H38.968V22.356Z" fill="#5D4037"/>
<g clip-path="url(#clip0_56_52)">
<path d="M47.2679 36.1933L45.9853 31.5005L26.1257 24.2525L22.6125 11.3983C22.0549 9.35792 20.214 8.31072 18.5821 8.73939C16.9503 9.16807 16.0714 10.9297 16.6291 12.9701L20.1422 25.8243L6.63974 41.8364L7.92232 46.5292L22.9862 36.2301L26.4994 49.0843L23.2771 53.6484L24.2251 57.117L30.8643 52.9674L38.7304 53.3066L37.7824 49.838L32.6641 47.4649L29.151 34.6107L47.4492 36.1456L47.2679 36.1933Z" fill="white"/>
</g>
<g clip-path="url(#clip1_56_52)">
<path d="M47.2679 36.1933L45.9853 31.5005L26.1257 24.2525L22.6125 11.3983C22.0549 9.35792 20.214 8.31072 18.5821 8.73939C16.9503 9.16807 16.0714 10.9297 16.6291 12.9701L20.1422 25.8243L6.63974 41.8364L7.92232 46.5292L22.9862 36.2301L26.4994 49.0843L23.2771 53.6484L24.2251 57.117L30.8643 52.9674L38.7304 53.3066L37.7824 49.838L32.6641 47.4649L29.151 34.6107L47.4492 36.1456L47.2679 36.1933Z" fill="white"/>
</g>
<path d="M66.804 34L60.448 14.4H66.16L71.508 31.368H68.624L74.252 14.4H79.348L84.668 31.368H81.896L87.412 14.4H92.704L86.348 34H80.412L75.876 19.58H77.472L72.74 34H66.804ZM104.733 18.572C105.909 18.572 106.973 18.8147 107.925 19.3C108.877 19.7667 109.623 20.4947 110.165 21.484C110.725 22.4733 111.005 23.752 111.005 25.32V34H105.685V26.188C105.685 25.1053 105.461 24.3213 105.013 23.836C104.583 23.332 103.977 23.08 103.193 23.08C102.633 23.08 102.119 23.2107 101.653 23.472C101.186 23.7147 100.822 24.0973 100.561 24.62C100.299 25.1427 100.169 25.824 100.169 26.664V34H94.8486V13.224H100.169V23.136L98.9366 21.876C99.5153 20.7747 100.309 19.9533 101.317 19.412C102.325 18.852 103.463 18.572 104.733 18.572ZM122.488 34.252C120.696 34.252 119.128 33.916 117.784 33.244C116.459 32.5533 115.423 31.62 114.676 30.444C113.948 29.2493 113.584 27.896 113.584 26.384C113.584 24.872 113.939 23.528 114.648 22.352C115.376 21.1573 116.375 20.2333 117.644 19.58C118.913 18.908 120.341 18.572 121.928 18.572C123.421 18.572 124.784 18.88 126.016 19.496C127.248 20.0933 128.228 20.98 128.956 22.156C129.684 23.332 130.048 24.76 130.048 26.44C130.048 26.6267 130.039 26.8413 130.02 27.084C130.001 27.3267 129.983 27.5507 129.964 27.756H117.952V24.956H127.136L125.12 25.74C125.139 25.0493 125.008 24.452 124.728 23.948C124.467 23.444 124.093 23.052 123.608 22.772C123.141 22.492 122.591 22.352 121.956 22.352C121.321 22.352 120.761 22.492 120.276 22.772C119.809 23.052 119.445 23.4533 119.184 23.976C118.923 24.48 118.792 25.0773 118.792 25.768V26.58C118.792 27.3267 118.941 27.9707 119.24 28.512C119.557 29.0533 120.005 29.4733 120.584 29.772C121.163 30.052 121.853 30.192 122.656 30.192C123.403 30.192 124.037 30.0893 124.56 29.884C125.101 29.66 125.633 29.324 126.156 28.876L128.956 31.788C128.228 32.5907 127.332 33.2067 126.268 33.636C125.204 34.0467 123.944 34.252 122.488 34.252ZM132.501 34V18.824H137.569V23.248L136.813 21.988C137.261 20.8493 137.989 20 138.997 19.44C140.005 18.8613 141.228 18.572 142.665 18.572V23.36C142.422 23.3227 142.208 23.304 142.021 23.304C141.853 23.2853 141.666 23.276 141.461 23.276C140.378 23.276 139.501 23.5747 138.829 24.172C138.157 24.7507 137.821 25.7027 137.821 27.028V34H132.501ZM152.676 34.252C150.884 34.252 149.316 33.916 147.972 33.244C146.646 32.5533 145.61 31.62 144.864 30.444C144.136 29.2493 143.772 27.896 143.772 26.384C143.772 24.872 144.126 23.528 144.836 22.352C145.564 21.1573 146.562 20.2333 147.832 19.58C149.101 18.908 150.529 18.572 152.116 18.572C153.609 18.572 154.972 18.88 156.204 19.496C157.436 20.0933 158.416 20.98 159.144 22.156C159.872 23.332 160.236 24.76 160.236 26.44C160.236 26.6267 160.226 26.8413 160.208 27.084C160.189 27.3267 160.17 27.5507 160.152 27.756H148.14V24.956H157.324L155.308 25.74C155.326 25.0493 155.196 24.452 154.916 23.948C154.654 23.444 154.281 23.052 153.796 22.772C153.329 22.492 152.778 22.352 152.144 22.352C151.509 22.352 150.949 22.492 150.464 22.772C149.997 23.052 149.633 23.4533 149.372 23.976C149.11 24.48 148.98 25.0773 148.98 25.768V26.58C148.98 27.3267 149.129 27.9707 149.428 28.512C149.745 29.0533 150.193 29.4733 150.772 29.772C151.35 30.052 152.041 30.192 152.844 30.192C153.59 30.192 154.225 30.0893 154.748 29.884C155.289 29.66 155.821 29.324 156.344 28.876L159.144 31.788C158.416 32.5907 157.52 33.2067 156.456 33.636C155.392 34.0467 154.132 34.252 152.676 34.252Z" fill="#5D4037"/>
<path d="M163.84 34V30.528L171.176 23.668C171.699 23.1827 172.081 22.7533 172.324 22.38C172.585 22.0067 172.753 21.6707 172.828 21.372C172.921 21.0547 172.968 20.7653 172.968 20.504C172.968 19.8693 172.753 19.3747 172.324 19.02C171.913 18.6653 171.288 18.488 170.448 18.488C169.739 18.488 169.076 18.6467 168.46 18.964C167.844 19.2813 167.34 19.7573 166.948 20.392L162.832 18.096C163.56 16.864 164.615 15.8747 165.996 15.128C167.377 14.3813 169.029 14.008 170.952 14.008C172.464 14.008 173.789 14.2507 174.928 14.736C176.067 15.2213 176.953 15.912 177.588 16.808C178.241 17.704 178.568 18.7587 178.568 19.972C178.568 20.6067 178.484 21.2413 178.316 21.876C178.148 22.492 177.821 23.1547 177.336 23.864C176.869 24.5547 176.169 25.3293 175.236 26.188L169.412 31.564L168.488 29.604H179.1V34H163.84Z" fill="#FFB800"/>
<path d="M63.304 54V45.74H60.056V44.2H68.372V45.74H65.124V54H63.304ZM69.7379 54V44.2H73.7699C74.6379 44.2 75.3799 44.34 75.9959 44.62C76.6212 44.9 77.1019 45.3013 77.4379 45.824C77.7739 46.3467 77.9419 46.9673 77.9419 47.686C77.9419 48.4047 77.7739 49.0253 77.4379 49.548C77.1019 50.0613 76.6212 50.458 75.9959 50.738C75.3799 51.0087 74.6379 51.144 73.7699 51.144H70.7459L71.5579 50.318V54H69.7379ZM76.1499 54L73.6719 50.444H75.6179L78.1099 54H76.1499ZM71.5579 50.514L70.7459 49.646H73.6859C74.4885 49.646 75.0905 49.4733 75.4919 49.128C75.9025 48.7827 76.1079 48.302 76.1079 47.686C76.1079 47.0607 75.9025 46.58 75.4919 46.244C75.0905 45.908 74.4885 45.74 73.6859 45.74H70.7459L71.5579 44.844V50.514ZM78.5921 54L83.0021 44.2H84.7941L89.2181 54H87.3141L83.5201 45.166H84.2481L80.4681 54H78.5921ZM80.6221 51.732L81.1121 50.304H86.4041L86.8941 51.732H80.6221ZM92.8429 54L88.5589 44.2H90.5329L94.3549 53.062H93.2209L97.0849 44.2H98.9049L94.6349 54H92.8429ZM101.619 48.274H106.491V49.772H101.619V48.274ZM101.759 52.474H107.289V54H99.939V44.2H107.093V45.726H101.759V52.474ZM109.318 54V44.2H111.138V52.46H116.262V54H109.318ZM120.668 54.14C119.903 54.14 119.17 54.0327 118.47 53.818C117.77 53.594 117.215 53.3093 116.804 52.964L117.434 51.55C117.826 51.858 118.312 52.1147 118.89 52.32C119.469 52.5253 120.062 52.628 120.668 52.628C121.182 52.628 121.597 52.572 121.914 52.46C122.232 52.348 122.465 52.1987 122.614 52.012C122.764 51.816 122.838 51.5967 122.838 51.354C122.838 51.0553 122.731 50.8173 122.516 50.64C122.302 50.4533 122.022 50.3087 121.676 50.206C121.34 50.094 120.962 49.9913 120.542 49.898C120.132 49.8047 119.716 49.6973 119.296 49.576C118.886 49.4453 118.508 49.282 118.162 49.086C117.826 48.8807 117.551 48.61 117.336 48.274C117.122 47.938 117.014 47.5087 117.014 46.986C117.014 46.454 117.154 45.9687 117.434 45.53C117.724 45.082 118.158 44.7273 118.736 44.466C119.324 44.1953 120.066 44.06 120.962 44.06C121.55 44.06 122.134 44.1347 122.712 44.284C123.291 44.4333 123.795 44.648 124.224 44.928L123.65 46.342C123.212 46.0807 122.759 45.8893 122.292 45.768C121.826 45.6373 121.378 45.572 120.948 45.572C120.444 45.572 120.034 45.6327 119.716 45.754C119.408 45.8753 119.18 46.034 119.03 46.23C118.89 46.426 118.82 46.65 118.82 46.902C118.82 47.2007 118.923 47.4433 119.128 47.63C119.343 47.8073 119.618 47.9473 119.954 48.05C120.3 48.1527 120.682 48.2553 121.102 48.358C121.522 48.4513 121.938 48.5587 122.348 48.68C122.768 48.8013 123.146 48.96 123.482 49.156C123.828 49.352 124.103 49.618 124.308 49.954C124.523 50.29 124.63 50.7147 124.63 51.228C124.63 51.7507 124.486 52.236 124.196 52.684C123.916 53.1227 123.482 53.4773 122.894 53.748C122.306 54.0093 121.564 54.14 120.668 54.14Z" fill="#9E9E9E"/>
<defs>
<clipPath id="clip0_56_52">
<rect width="51" height="50" fill="white" transform="translate(0 6.5)"/>
</clipPath>
<clipPath id="clip1_56_52">
<rect width="51" height="50" fill="white" transform="translate(0 6.5)"/>
</clipPath>
</defs>
</svg>
